<mxfile host="app.diagrams.net" modified="2023-10-04T22:29:58.005Z" agent="Mozilla/5.0 (Windows NT 10.0; Win64; x64) AppleWebKit/537.36 (KHTML, like Gecko) Chrome/117.0.0.0 Safari/537.36 Edg/117.0.2045.47" version="22.0.2" etag="_3tpNvccNXQHUfQtaeHN" type="github">
  <diagram name="Page-1" id="siwHMQHL1EX18qpmXc3y">
    <mxGraphModel>
      <root>
        <mxCell id="0" />
        <mxCell id="1" parent="0" />
      </root>
    </mxGraphModel>
  </diagram>
</mxfile>
